<svg width="48" height="48" viewBox="0 0 48 48" fill="none" xmlns="http://www.w3.org/2000/svg">
<path d="M16.962 43.874C17.1419 44.069 17.2375 44.3271 17.2282 44.5923C17.2188 44.8574 17.1052 45.1081 16.912 45.29L14.74 47.321C14.546 47.5012 14.2885 47.597 14.0239 47.5875C13.7594 47.5779 13.5094 47.4637 13.329 47.27L0.679994 33.638C0.500244 33.4428 0.404769 33.1846 0.414319 32.9195C0.423869 32.6544 0.53767 32.4037 0.730994 32.222L2.90599 30.194C3.00197 30.1046 3.11461 30.0351 3.23747 29.9893C3.36034 29.9435 3.49102 29.9224 3.62206 29.9271C3.7531 29.9318 3.88192 29.9624 4.00116 30.0169C4.1204 30.0714 4.22772 30.1489 4.31699 30.245L16.962 43.874ZM33.102 18.224C33.2817 18.4191 33.3772 18.6773 33.3677 18.9425C33.3581 19.2076 33.2443 19.4583 33.051 19.64L19.381 32.41C19.187 32.5902 18.9295 32.686 18.6649 32.6765C18.4004 32.6669 18.1504 32.5527 17.97 32.359L14.707 28.838C14.5272 28.6428 14.4318 28.3846 14.4413 28.1195C14.4509 27.8544 14.5647 27.6037 14.758 27.422L28.425 14.652C28.5209 14.5627 28.6334 14.4931 28.7562 14.4474C28.879 14.4016 29.0096 14.3805 29.1406 14.3852C29.2715 14.3899 29.4003 14.4204 29.5194 14.475C29.6386 14.5295 29.7458 14.607 29.835 14.703L33.102 18.224V18.224ZM21.613 39.527C21.987 39.93 21.964 40.567 21.562 40.943L19.387 42.973C19.291 43.0623 19.1784 43.1319 19.0555 43.1777C18.9327 43.2235 18.802 43.2446 18.6709 43.2399C18.5399 43.2351 18.4111 43.2046 18.2918 43.1501C18.1726 43.0955 18.0653 43.018 17.976 42.922L5.33399 29.29C5.15412 29.095 5.05847 28.8368 5.06783 28.5717C5.07719 28.3066 5.19081 28.0558 5.38399 27.874L7.55499 25.845C7.74894 25.6648 8.00648 25.569 8.27105 25.5785C8.53561 25.5881 8.78556 25.7023 8.96599 25.896L21.613 39.527ZM42.676 18.713C42.8556 18.9083 42.9509 19.1665 42.9412 19.4317C42.9314 19.6968 42.8175 19.9474 42.624 20.129L40.45 22.159C40.256 22.3394 39.9984 22.4354 39.7337 22.426C39.4689 22.4167 39.2187 22.3026 39.038 22.109L26.394 8.47999C26.2139 8.28509 26.1181 8.02691 26.1274 7.76169C26.1368 7.49647 26.2506 7.24569 26.444 7.06399L28.624 5.02899C28.7199 4.93967 28.8324 4.87014 28.9552 4.82436C29.078 4.77858 29.2086 4.75745 29.3396 4.76219C29.4705 4.76692 29.5993 4.79743 29.7184 4.85196C29.8376 4.90649 29.9448 4.98398 30.034 5.07999L42.676 18.713ZM47.32 14.373C47.4996 14.5684 47.5949 14.8267 47.5854 15.092C47.5758 15.3572 47.4621 15.608 47.269 15.79L45.099 17.819C45.0032 17.9084 44.8907 17.978 44.7679 18.0238C44.6452 18.0697 44.5146 18.0909 44.3836 18.0863C44.2527 18.0816 44.1239 18.0512 44.0047 17.9968C43.8855 17.9423 43.7782 17.8649 43.689 17.769L31.047 4.13399C30.8673 3.93868 30.7718 3.68045 30.7811 3.41522C30.7905 3.15 30.904 2.89914 31.097 2.71699L33.269 0.683986C33.3647 0.594517 33.4771 0.524821 33.5998 0.478896C33.7224 0.432971 33.853 0.411721 33.9839 0.416367C34.1148 0.421012 34.2435 0.451461 34.3626 0.505966C34.4817 0.560472 34.5889 0.63796 34.678 0.733986L47.32 14.373V14.373Z" fill="#83498C"/>
</svg>
